<svg width="382" height="54" viewBox="0 0 382 54" fill="none" xmlns="http://www.w3.org/2000/svg">
<g opacity="0.8" filter="url(#filter0_d)">
<path d="M7.19727 4.66211H18.2129L18.2422 6.1709L16.3818 6.40527L15.7666 6.75684L15.5469 7.02051L15.415 7.37207L15.2539 8.16309L15.1514 9.49609L15.21 27.2939L15.3857 28.041L15.7373 28.6855L16.2793 29.0957L16.6602 29.1982L17.0557 29.125L18.4766 28.6123L22.4316 26.752L23.8818 26.2686L24.3066 26.21L25.2002 26.2979L26.2695 26.6787L26.8701 27.0449L27.5586 27.8066L27.9102 28.4219L28.1006 29.1982L28.042 30.1064L27.749 30.8096L27.3535 31.3369L26.1377 32.2891L26.0059 31.8789L26.167 31.791L26.709 31.3662L27.1631 30.8682L27.2949 30.3848L27.2363 30.1064L26.9727 29.9014L26.5918 29.7842L26.167 29.7402L25.3906 29.9307L19.8242 32.0986L18.5645 32.2891L17.6562 32.2305L16.4697 31.9521L15.4736 31.498L14.9023 31.1025L14.5801 30.9414L7.19727 31.1318V29.6523L8.61816 29.4912L9.29199 29.1982L9.55566 28.9785L9.77539 28.7148L10.0684 28.041L10.2002 27.2061V8.91016L10.1562 8.48535L9.86328 7.32812L9.70215 7.00586L9.45312 6.75684L8.83789 6.40527L8.45703 6.30273L7.22656 6.2002L7.19727 6.1123V4.66211ZM29.7412 4.66211H40.6689L40.6982 6.02441C40.6787 6.1123 40.6152 6.16602 40.5078 6.18555L39.5557 6.24414L38.75 6.44922L38.3252 6.72754L38.1641 6.88867L37.9443 7.35742L37.8125 7.89941L37.6807 9.12988V26.459L37.8857 27.9531L38.1934 28.6709L38.501 29.0225L38.7207 29.1543L39.4971 29.418L40.4346 29.5059L40.6982 29.5791V30.9414L40.4346 30.9707L29.8145 31L29.7412 30.7363V29.6963C29.751 29.5986 29.8047 29.5352 29.9023 29.5059L30.5469 29.4766L31.3965 29.2861L32.0117 28.9199L32.3047 28.5098L32.5977 27.792L32.7295 26.9131V9.49609L32.6562 8.57324L32.4658 7.73828L32.1729 7.02051L31.8213 6.66895L31.3965 6.41992L30.5908 6.21484L29.9316 6.18555C29.834 6.17578 29.7705 6.12207 29.7412 6.02441V4.66211ZM44.4629 4.66211H56.8408L59.1699 4.98438L60.1367 5.33594L61.2793 5.92188L62.0264 6.50781L62.6416 7.19629L62.9639 7.76758L63.2129 8.38281L63.4766 9.45215L63.5352 10.7119L63.4473 11.4736L62.8906 13.1143L62.3486 13.8906L61.25 14.9893L59.9463 15.8682L58.3936 16.5127L58.4521 16.5859L60.2393 16.9961L62.4072 17.9043L63.6963 18.8125L64.3115 19.501L64.8975 20.6729L65.1904 21.6982L65.3223 22.8701L65.293 24.5547L65.1025 25.6826L64.7803 26.6641L64.3555 27.5576L63.0957 28.9199L62.3047 29.418L60.1074 30.3115L56.8115 30.9414L44.5361 31C44.4678 30.9023 44.4336 30.7852 44.4336 30.6484L44.4629 29.5352L45.4443 29.4766L45.8252 29.3887L46.4697 29.1836L46.9531 28.8027L47.2461 28.2168L47.4805 27.1182L47.5684 25.917L47.4805 8.58789L47.2461 7.51855L46.9531 6.93262L46.7334 6.72754L46.4404 6.56641L45.8252 6.31738L44.4336 6.18555V5.05762L44.4629 4.66211ZM52.4902 6.58105V16.1025H53.1201L54.834 15.8682L56.3135 15.3262L57.2217 14.7988L57.7197 14.3154L58.1299 13.7295L58.4229 13.0264L58.6133 12.2354L58.6865 11.3271L58.6133 9.93555L58.5254 9.52539L58.2617 8.80762L58.0713 8.48535L57.6465 7.92871L56.7969 7.31348L56.1523 6.96191L55.4053 6.72754L54.5703 6.58105H52.4902ZM52.4902 17.9189V25.9756L52.5928 27.1475L52.8271 28.1143L53.0469 28.4805L53.3691 28.7734L53.7646 28.9639L54.79 29.125H55.4053L56.4746 28.9932L57.3535 28.7002L58.1299 28.3047L58.4814 28.0264L59.0674 27.4404L59.3311 27.0889L59.9463 25.917L60.0781 25.4629L60.2686 24.4521L60.2979 23.8809L60.0781 21.7275L59.7852 20.8193L59.3604 20.043L59.0967 19.7207L58.4814 19.1494L57.7197 18.6953L56.4453 18.1973L53.8232 17.8457L52.4902 17.9189ZM81.4648 17.6992L85.376 23.5732C85.5811 23.8955 85.8154 24.2764 86.0791 24.7158C86.3428 25.1455 86.6211 25.585 86.9141 26.0342C87.4902 26.8936 88.1348 27.6895 88.8477 28.4219C89.5605 29.1445 90.3516 29.5059 91.2207 29.5059V31H87.5879C86.4551 31 85.5762 30.8682 84.9512 30.6045C84.3359 30.3408 83.7793 29.8916 83.2812 29.2568C83.0762 29.0029 82.8662 28.71 82.6514 28.3779C82.4365 28.0459 82.1973 27.6699 81.9336 27.25L76.8799 19.1201H74.4775V23.8955V25.6387C74.4775 26.8691 74.6191 27.8213 74.9023 28.4951C75.1953 29.1689 76.0547 29.5059 77.4805 29.5059V31C77.0312 30.9707 76.5869 30.9463 76.1475 30.9268C75.7178 30.8975 75.2783 30.8682 74.8291 30.8389C74.3896 30.8389 73.9502 30.834 73.5107 30.8242C73.0811 30.8145 72.6416 30.8096 72.1924 30.8096C71.4795 30.8096 70.7666 30.8242 70.0537 30.8535C69.3408 30.873 68.6328 30.8975 67.9297 30.9268C67.6855 30.9463 67.4463 30.9658 67.2119 30.9854C66.9775 30.9951 66.7432 31 66.5088 31V29.5059C67.9541 29.5059 68.8184 29.1689 69.1016 28.4951C69.3945 27.8213 69.541 26.8691 69.541 25.6387L69.5117 23.8955V11.8252L69.541 10.0381C69.541 8.74902 69.3848 7.77734 69.0723 7.12305C68.7598 6.46875 67.9053 6.1416 66.5088 6.1416V4.7207C67.4268 4.76953 68.3398 4.80859 69.248 4.83789C70.1562 4.85742 71.0596 4.86719 71.958 4.86719C72.4854 4.86719 73.0176 4.85742 73.5547 4.83789C74.0918 4.80859 74.624 4.7793 75.1514 4.75C75.6787 4.75 76.2109 4.74023 76.748 4.7207C77.2852 4.69141 77.8174 4.67676 78.3447 4.67676C78.374 4.67676 78.4082 4.67676 78.4473 4.67676C78.4863 4.67676 78.5303 4.67676 78.5791 4.67676C80.5029 4.70605 82.2607 5.16992 83.8525 6.06836C85.4443 6.95703 86.2402 8.53418 86.2402 10.7998C86.2402 12.4502 85.8203 13.8613 84.9805 15.0332C84.1406 16.2051 82.9688 17.0938 81.4648 17.6992ZM74.4775 17.3037C76.4014 17.3037 77.998 16.8691 79.2676 16C80.5469 15.1309 81.1865 13.6562 81.1865 11.5762C81.1865 9.76953 80.6787 8.5 79.6631 7.76758C78.6572 7.02539 77.3242 6.6543 75.6641 6.6543C75.4785 6.6543 75.2881 6.65918 75.0928 6.66895C74.8975 6.67871 74.6924 6.71289 74.4775 6.77148V17.3037ZM94.4141 3.97363L96.6846 4.70605L98.5742 5.07227L98.7939 5.2334L107.393 17.9043L107.583 18.0215L108.374 17.6553L109.312 17.4648L110.396 17.4355L111.333 17.626L112.095 17.9922L112.695 18.5049L113.105 19.2227L113.325 20.1162V20.4971L113.237 21.1855L113.018 22.0645L112.783 22.5771L112.153 23.4561L111.553 23.9688L111.655 24.2178L119.976 36.7129L122.349 39.5254L123.359 40.375L123.608 40.5215L124.18 40.7119L124.502 40.7266L124.751 40.6533L124.941 40.4922L125.073 40.2432L125.381 39.4229L125.571 39.2324L125.82 39.1006L126.172 39.0713L126.655 39.2617L127.051 39.6133L127.344 40.082L127.534 40.6533L127.563 40.9756L127.505 41.3125L127.256 41.7959L127.065 41.9863L126.582 42.2354L125.981 42.3525L125.073 42.2354C122.778 42.3037 120.796 41.5664 119.126 40.0234L118.057 39.2324L115.273 36.0391L108.931 25.3164L108.74 25.1992L107.7 25.2285L107.012 25.1406L104.727 24.4668L101.064 22.8994L100.464 22.7676H100.098L99.5264 22.958L99.3359 23.1191L99.2773 23.4561L99.3652 23.749L99.4971 23.998L99.8633 24.3789L100.288 24.6865L100.537 24.9209L100.435 25.2578L100.083 25.0674L99.4531 24.5693L99.0869 24.1885L98.7939 23.7197L98.7646 24.0566L99.0723 27.8213L99.3652 28.6416L99.6875 29.0811L100.156 29.374L100.698 29.5498L101.709 29.6523L101.826 29.9307L101.958 31.1465H91.4404L91.2793 29.6816L92.3193 29.5791L93.2129 29.3594L93.4619 29.2129L93.8428 28.8613L93.9893 28.6416L94.1797 28.0996L94.3408 26.3711L94.1797 11.2393L94.2236 10.8877L93.9014 4.51562L94.0039 4.2959L94.4141 3.97363ZM98.3838 8.36816L98.6328 21.5664L98.8525 21.1562L99.2773 20.5264L99.4531 20.3652L100.273 19.7646L100.757 19.5449L101.636 19.3545H102.646L106.191 20.8633L101.958 13.9199C99.6338 10.2871 98.4424 8.43652 98.3838 8.36816ZM109.604 17.9043L108.14 18.2412L107.759 18.4316L110.381 22.2842L110.703 22.2549L111.392 22.0791L112.124 21.6836L112.417 21.376L112.666 21.0244L112.783 20.5557L112.812 20.1162L112.695 19.5156L112.505 19.1055L112.256 18.7539L111.611 18.2559L110.732 17.9629L109.604 17.9043ZM130.801 17.6992L134.712 23.5732C134.917 23.8955 135.151 24.2764 135.415 24.7158C135.679 25.1455 135.957 25.585 136.25 26.0342C136.826 26.8936 137.471 27.6895 138.184 28.4219C138.896 29.1445 139.688 29.5059 140.557 29.5059V31H136.924C135.791 31 134.912 30.8682 134.287 30.6045C133.672 30.3408 133.115 29.8916 132.617 29.2568C132.412 29.0029 132.202 28.71 131.987 28.3779C131.772 28.0459 131.533 27.6699 131.27 27.25L126.216 19.1201H123.813V23.8955V25.6387C123.813 26.8691 123.955 27.8213 124.238 28.4951C124.531 29.1689 125.391 29.5059 126.816 29.5059V31C126.367 30.9707 125.923 30.9463 125.483 30.9268C125.054 30.8975 124.614 30.8682 124.165 30.8389C123.726 30.8389 123.286 30.834 122.847 30.8242C122.417 30.8145 121.978 30.8096 121.528 30.8096C120.815 30.8096 120.103 30.8242 119.39 30.8535C118.677 30.873 117.969 30.8975 117.266 30.9268C117.021 30.9463 116.782 30.9658 116.548 30.9854C116.313 30.9951 116.079 31 115.845 31V29.5059C117.29 29.5059 118.154 29.1689 118.438 28.4951C118.73 27.8213 118.877 26.8691 118.877 25.6387L118.848 23.8955V11.8252L118.877 10.0381C118.877 8.74902 118.721 7.77734 118.408 7.12305C118.096 6.46875 117.241 6.1416 115.845 6.1416V4.7207C116.763 4.76953 117.676 4.80859 118.584 4.83789C119.492 4.85742 120.396 4.86719 121.294 4.86719C121.821 4.86719 122.354 4.85742 122.891 4.83789C123.428 4.80859 123.96 4.7793 124.487 4.75C125.015 4.75 125.547 4.74023 126.084 4.7207C126.621 4.69141 127.153 4.67676 127.681 4.67676C127.71 4.67676 127.744 4.67676 127.783 4.67676C127.822 4.67676 127.866 4.67676 127.915 4.67676C129.839 4.70605 131.597 5.16992 133.188 6.06836C134.78 6.95703 135.576 8.53418 135.576 10.7998C135.576 12.4502 135.156 13.8613 134.316 15.0332C133.477 16.2051 132.305 17.0938 130.801 17.6992ZM123.813 17.3037C125.737 17.3037 127.334 16.8691 128.604 16C129.883 15.1309 130.522 13.6562 130.522 11.5762C130.522 9.76953 130.015 8.5 128.999 7.76758C127.993 7.02539 126.66 6.6543 125 6.6543C124.814 6.6543 124.624 6.65918 124.429 6.66895C124.233 6.67871 124.028 6.71289 123.813 6.77148V17.3037ZM140.073 4.66211H151.411L151.47 4.73535V6.15625L150.605 6.27344L150.151 6.40527L149.756 6.58105C149.658 6.66895 149.58 6.78613 149.521 6.93262L149.404 7.41602L149.434 7.95801L149.727 8.83691L154.385 17.1719L158.472 9.45215L158.926 8.10449L158.955 7.57715L158.896 7.03516L158.691 6.66895C158.604 6.57129 158.486 6.48828 158.34 6.41992L157.886 6.28809L156.816 6.18555L156.787 4.66211H165.723V6.12695L165.649 6.18555L165.078 6.21484L164.565 6.31738L163.774 6.66895L163.101 7.19629L161.123 9.93555L155.659 19.8525C155.601 19.9893 155.566 20.1504 155.557 20.3359V26.2393L155.659 27.3086L155.776 27.792L156.069 28.6416L156.362 28.9639L156.743 29.1836L157.168 29.3447L157.651 29.4473L158.662 29.5059L158.721 29.5791V31L148.76 30.8975L147.559 31C147.49 30.8535 147.456 30.6826 147.456 30.4873L147.485 29.5059L148.745 29.418L149.214 29.2861L149.624 29.0957L149.976 28.8613L150.21 28.5098L150.4 28.1143L150.605 27.1475L150.635 20.0869L143.765 8.64648L142.402 7.06445L142.051 6.80078L141.304 6.40527L140.85 6.27344L140.132 6.18555L140.073 4.66211ZM186.743 4.03223L187.109 4.09082L187.139 4.2959L187.051 20.2188L187.212 20.4531L187.49 20.5557L187.783 20.4531L188.032 20.3066L188.94 20.0283L189.307 19.9844L190.039 20.0576L190.317 20.1602L191.079 20.6143L191.46 21.0244L191.621 21.2588L191.753 21.5225L191.826 21.8594L191.841 22.1523L191.753 22.5479L191.519 23.1191L190.2 24.9795L189.424 25.7998L186.89 28.041L186.67 28.1729L177.559 35.7754L175.801 37.6064L175.64 37.8262L175.376 38.3682L175.347 38.6172L175.391 38.8076L175.596 38.793L176.108 38.5293L176.577 38.1924L180.591 33.8564L182.583 32.2598L184.136 31.4248L185.322 31.0146L186.582 30.8535L186.992 30.9561L187.271 31.0732L187.476 31.249L187.651 31.4541L187.754 31.7764L187.71 32.1426L187.607 32.4209L187.314 32.9482L186.567 33.7832L185.483 34.6768L183.975 35.5703L183.418 35.8047L183.374 35.5703L184.517 35.0137L186.333 33.6807L187.065 32.8018L187.212 32.5527L187.3 32.2451V31.9082L187.153 31.6445L186.89 31.5127L186.714 31.498L186.274 31.5859L185.703 31.8057L184.941 32.2305L183.242 33.71L179.287 38.1338L178.628 38.6611L177.646 39.2764L176.519 39.7451L175.684 39.8916L175.303 39.8184L174.541 39.4961L174.321 39.3057L173.999 38.8516L173.911 38.5439L173.882 38.1631L174.014 37.5186L174.424 36.7422L177.222 33.5488L187.812 24.6719L189.629 22.8848L190.288 21.9766L190.522 21.4053L190.552 21.0391C190.522 20.9512 190.474 20.8682 190.405 20.79L190.127 20.6875H189.951L189.438 20.79L188.618 21.1855L187.461 22.0059L184.912 24.4521V23.998L184.854 23.9541L184.648 24.1592L183.462 25.7412L182.378 26.6787L182.041 26.7227L181.763 26.6201L181.558 26.4297L181.279 25.9023L180.986 24.9941L180.796 22.4014L181.323 18.5488L182.158 16.1904L182.92 14.9746L184.722 13.2021V10.4189L184.648 10.0967L184.458 9.8916L184.18 9.78906H183.975L183.857 9.8623L183.228 10.4336L183.213 9.26172C183.223 9.1543 183.267 9.06152 183.345 8.9834L185.439 7.09375L186.025 6.08301L186.626 4.2959C186.665 4.22754 186.704 4.13965 186.743 4.03223ZM183.989 15.3701L183.872 15.5459L183.784 15.751L183.213 18.71L183.257 21.2441L183.403 21.9766L183.638 22.6211L183.828 23.002L184.019 23.1191L184.238 23.1631L184.487 23.1191L184.648 22.9873L184.751 22.7969L184.634 16.4834L184.531 16L184.37 15.5752L184.238 15.4141C184.17 15.3945 184.087 15.3799 183.989 15.3701ZM179.082 18.2852L179.346 18.3291L179.521 18.417L179.741 18.7539L179.976 19.6328L180.078 20.6289L180.093 25.8877L180.151 26.4004L180.254 26.8545L180.4 26.9717L180.591 26.9131L181.191 26.4004L181.177 27.7627L177.778 30.7363L177.72 22.7236L177.573 22.0352L177.485 21.8594L177.266 21.7861L177.075 21.8594L176.445 22.8994L176.431 32.04L173.574 34.4424L173.428 34.5156L173.311 34.3545L173.325 33.5342L173.486 33.1387L173.589 32.9775L173.896 32.7139L173.97 32.5088L174.058 32.0547L174.146 31.0293L174.072 25.3018L173.984 25.0967L173.926 25.0674L173.765 25.082L173.354 25.4043V24.4521L173.853 24.1299L174.702 23.2949L175.259 22.4746L176.182 20.2334L176.562 20.3066L176.577 20.3799L176.533 20.5557V20.8193L176.577 20.8779L177.163 19.9844L178.364 18.6807L178.687 18.4463L179.082 18.2852ZM171.626 24.4375L171.846 24.4521L172.007 24.5254L172.212 24.7598L172.461 25.4043L172.593 26.1953L172.607 32.8896C172.607 33.0068 172.661 33.0947 172.769 33.1533C172.847 33.1045 172.92 33.0312 172.988 32.9336L173.164 32.5527L173.237 32.626L173.398 33.1094L172.9 34.3984L172.476 35.1162L171.611 36.0244L171.523 36.1709L171.304 36.3906L171.055 36.5957L170.85 36.6689L170.718 36.625L170.498 36.4492V36.2734L170.41 36.2588L169.736 37.5039L169.546 37.7676L168.887 38.4707L168.638 38.6611L168.33 38.8076L168.125 38.8223L167.964 38.7637L167.759 38.5L167.627 38.207L167.51 37.6357L167.495 36.5225L167.671 35.3652L167.979 34.5303L170.234 30.751L170.322 30.3994V29.0371L170.176 28.0557L170.103 27.9092C170.073 27.8115 170.01 27.748 169.912 27.7188L169.678 28.6123L169.59 30.0918L169.414 30.3555L167.729 32.2598L167.627 32.0547L167.598 31.6152L167.656 31L169.136 27.3379L169.956 25.9023L171.04 24.7451L171.304 24.5693L171.626 24.4375ZM184.487 24.5107C184.478 24.54 184.463 24.5693 184.443 24.5986L184.487 24.5107ZM170.308 32.2158L169.941 33.0361L169.795 33.5928L169.751 34.0029V34.9258L169.78 35.1309L169.868 35.2627L170.029 35.3359L170.205 35.292L170.308 35.1455L170.337 34.9551L170.322 32.4062L170.308 32.2158ZM204.043 4.44238L206.636 4.79395L208.013 5.18945C208.159 5.26758 208.237 5.39453 208.247 5.57031L209.038 10.4922L207.251 10.9023L207.178 10.5947L206.05 8.20703L205.537 7.51855L204.937 6.93262L204.146 6.53711L203.193 6.31738L202.373 6.25879L201.553 6.33203L200.63 6.5957L199.883 7.03516L199.253 7.5625L198.74 8.26562L198.433 9.10059L198.345 9.90625L198.447 10.6973L198.579 11.1514L198.784 11.5469L199.268 12.2354L201.274 13.8027L205.347 16.2051L207.939 18.3584L208.965 19.6914L209.346 20.4824L209.712 21.9033L209.814 23.5586L209.712 24.6719L209.331 26.0488L208.936 26.8398L207.896 28.1582L205.845 29.667L203.765 30.5312L202.329 30.8682L200.088 31L197.935 30.7656L194.741 29.8428C194.614 29.7646 194.526 29.6475 194.478 29.4912L193.145 23.8223H193.247L195.093 23.3096L195.942 25.4336L196.792 26.9424L197.554 27.9531L198.228 28.4658L199.019 28.8467L199.971 29.0811L201.069 29.1543L202.124 29.0225L203.047 28.7441L204.116 28.0703L204.731 27.4844L204.995 27.1475L205.376 26.3857L205.61 25.4043L205.552 24.3057L205.303 23.3828L204.834 22.6357L204.277 22.0498L202.944 21.0244L197.832 17.8457L196.177 16.542L195.576 15.9561L194.917 14.8428L194.58 13.9785L194.331 11.8691L194.404 10.7705L194.756 9.36426L195.356 8.16309L196.426 6.87402L197.817 5.90723L199.839 4.98438L201.245 4.61816L204.043 4.44238ZM213.535 4.66211H214.59L215.015 4.76465L215.352 4.95508L215.747 5.08691L218.003 5.36523H229.165L231.055 5.10156L231.45 4.99902L232.168 4.69141L233.428 4.66211L235.361 11.2686L233.838 11.2979C233.711 11.2686 233.613 11.1904 233.545 11.0635L233.428 10.6973L232.505 9.0127L231.553 7.91406L231.274 7.67969L230.615 7.28418L229.854 7.02051L228.989 6.85938L225.913 6.81543L225.942 26.8545L226.074 27.7773L226.309 28.5537L226.499 28.876L226.792 29.1104L227.129 29.3008L227.935 29.5059L228.916 29.5791L228.931 31H218.032L218.047 29.5645L218.809 29.5352L219.673 29.3447L220.039 29.1836L220.332 28.9785L220.566 28.6855L220.728 28.3486L220.933 27.543L221.05 26.5908V6.81543L218.267 6.84473L217.285 6.99121L216.509 7.24023L215.82 7.57715L215.015 8.30957L213.96 9.83301L213.33 11.2686L211.602 11.2979L213.535 4.66211ZM236.929 4.73535H247.549L247.52 6.2002H246.538L245.718 6.34668L245.278 6.58105L244.971 6.91797L244.839 7.12305L244.604 7.88477L244.473 9.05664L244.502 21.4932L244.795 23.8369L245.073 24.877L245.747 26.1514L246.304 26.9131L247.007 27.543L247.812 28.0557L249.219 28.6123L250.273 28.8467L252.485 28.7881L254.36 28.3779L255.254 27.9531L256.03 27.4111L256.66 26.7373L257.261 25.6826L257.876 24.0273L258.55 20.0869L258.638 9.99414L258.506 8.48535L258.242 7.44531L258.008 7.02051L257.832 6.84473L257.231 6.47852L256.733 6.31738L255.562 6.1709V4.83789L255.62 4.73535H263.911C264.009 4.75488 264.062 4.81348 264.072 4.91113V5.90723L264.014 6.2002H263.369L262.798 6.27344L262.329 6.44922L261.934 6.71289L261.655 7.0791L261.45 7.54785L261.318 8.06055L261.157 9.55469L260.923 22.7676L260.454 24.9648L259.648 26.752L258.608 28.0264L257.305 29.0225L254.053 30.3701L250.098 31L248.457 30.9707L246.509 30.6338L244.106 29.7549L242.656 28.8906L241.484 27.7773L240.708 26.5762L240.312 25.6387L239.902 24.1006L239.712 22.6504L239.668 9.55469L239.551 8.32422L239.375 7.54785L239.199 7.0498L238.906 6.68359L238.496 6.44922L237.456 6.2002H236.958L236.929 6.03906V4.73535ZM283.057 4.80859L286.221 5.6875L288.843 7.1084L291.187 9.29102L291.904 10.3604L293.091 13.2314L293.574 16.3223L293.516 18.9443L293.281 20.5264L291.934 24.1299L290.894 25.7998L290.088 26.7812L287.642 28.8467L286.191 29.6523L283.481 30.5459L279.878 31H265.845L265.815 29.5205L266.973 29.4473L267.661 29.2568L267.969 29.0957L268.423 28.6416L268.555 28.3486L268.745 27.6162L268.877 26.415V8.91016L268.613 7.38672L268.467 7.06445L268.291 6.78613L268.042 6.58105L267.456 6.27344L267.075 6.2002L265.845 6.09766L265.815 4.58887L283.057 4.80859ZM273.843 6.84473V24.9355L274.077 27.001L274.355 27.8652L274.561 28.2314L275.205 28.7441L275.645 28.876L276.611 29.0664L278.809 29.0371L281.709 28.5098L283.716 27.6162L285.034 26.6201L285.605 26.0635L286.968 23.9688L287.744 21.874L288.228 18.2998L288.066 15.0332L287.671 13.1582L287.217 11.8691L286.382 10.4189L285.576 9.49609L284.258 8.48535L282.324 7.54785L280.068 6.94727L276.318 6.68359L273.843 6.84473ZM310.552 4.86719L317.7 6.44922L317.832 6.74219L318.579 12.748L318.286 12.8799L317.29 13.0557L317.056 12.8799L316.499 11.4736L314.873 9.10059L313.335 7.87012L311.636 7.16699L309.937 6.88867L307.285 6.96191L305.996 7.26953L305.146 7.60645L304.121 8.20703L303.257 8.89551L301.836 10.668L300.752 12.7773L300.063 15.2383L299.902 18.0801L300.342 18.1826L301.118 18.1973L301.455 18.1533L308.208 15.3555L308.545 15.2969L309.673 15.3701L310.288 15.5605L310.83 15.8096L311.504 16.3223L312.178 17.2451L312.354 17.8604L312.427 18.5928L312.295 19.252L312.046 19.7939L311.27 20.6143L310.552 21.1123L310.42 20.8779L310.552 20.6729L311.226 20.1309L311.548 19.6621L311.636 19.3545L311.577 19.0176L311.343 18.8418L311.064 18.7393L310.449 18.666L310.068 18.7686L305.249 20.7168L303.989 21.0537L303.638 21.1123H302.51L301.499 20.9072L300.21 20.3359L300.195 20.4092L300.811 22.5918L301.836 24.7305L302.964 26.3711L303.77 27.2061L305.176 28.1436L306.611 28.6855L307.974 28.9199L309.556 28.9492L310.962 28.7734L312.192 28.4072L313.511 27.7334L314.404 27.0449L315.869 25.3457L317.085 22.958L317.393 21.9326L318.594 22.167L318.857 22.2695L317.759 28.7148L314.302 30.0479L309.57 30.8975L306.538 30.9268L303.535 30.3408L301.836 29.6377L299.214 27.8945L297.28 25.8584L296.46 24.6865L295.669 23.0898L294.922 20.2627L294.79 17.582L295.024 15.458L295.874 12.7041L296.841 10.9023L297.881 9.54004L299.961 7.63574L302.144 6.24414L305.073 5.18945L307.827 4.80859L310.552 4.86719ZM320.454 4.75L327.544 4.80859L327.925 4.75L328.145 4.94043L344.009 23.207L344.067 22.9141L343.979 9.0127L343.774 8.00195L343.525 7.41602L343.188 6.93262L342.676 6.61035L342.061 6.40527L340.83 6.27344V4.7793L340.947 4.75H349.502L349.561 5.11621V6.27344L348.286 6.31738L347.935 6.40527L347.671 6.53711L347.246 6.91797L346.924 7.41602L346.807 7.70898L346.631 8.77832L346.411 31.1758C346.323 31.2441 346.216 31.2832 346.089 31.293H344.463L344.258 31.1025L326.006 9.9502L326.328 27.001L326.533 28.041L326.753 28.627L326.943 28.8613L327.148 29.0518L329.155 29.5352L329.199 29.8721V31.0146L321.523 30.9414L320.513 31.0146L320.454 30.9414V29.5352L321.465 29.4473L322.109 29.2861L322.637 28.9932L323.018 28.5684L323.311 28.0117L323.472 27.3672L323.604 10.2139L323.545 8.64648L323.34 7.63574L323.208 7.34277L322.827 6.91797L322.271 6.61035L321.655 6.43457L320.454 6.27344V4.75ZM352.285 4.66211H353.34L353.765 4.76465L354.102 4.95508L354.497 5.08691L356.753 5.36523H367.915L369.805 5.10156L370.2 4.99902L370.918 4.69141L372.178 4.66211L374.111 11.2686L372.588 11.2979C372.461 11.2686 372.363 11.1904 372.295 11.0635L372.178 10.6973L371.255 9.0127L370.303 7.91406L370.024 7.67969L369.365 7.28418L368.604 7.02051L367.739 6.85938L364.663 6.81543L364.692 26.8545L364.824 27.7773L365.059 28.5537L365.249 28.876L365.542 29.1104L365.879 29.3008L366.685 29.5059L367.666 29.5791L367.681 31H356.782L356.797 29.5645L357.559 29.5352L358.423 29.3447L358.789 29.1836L359.082 28.9785L359.316 28.6855L359.478 28.3486L359.683 27.543L359.8 26.5908V6.81543L357.017 6.84473L356.035 6.99121L355.259 7.24023L354.57 7.57715L353.765 8.30957L352.71 9.83301L352.08 11.2686L350.352 11.2979L352.285 4.66211Z" fill="white"/>
</g>
<defs>
<filter id="filter0_d" x="0.197266" y="0.973633" width="380.914" height="52.3789" filterUnits="userSpaceOnUse" color-interpolation-filters="sRGB">
<feFlood flood-opacity="0" result="BackgroundImageFix"/>
<feColorMatrix in="SourceAlpha" type="matrix" values="0 0 0 0 0 0 0 0 0 0 0 0 0 0 0 0 0 0 127 0"/>
<feOffset dy="4"/>
<feGaussianBlur stdDeviation="3.5"/>
<feColorMatrix type="matrix" values="0 0 0 0 0 0 0 0 0 0 0 0 0 0 0 0 0 0 0.25 0"/>
<feBlend mode="normal" in2="BackgroundImageFix" result="effect1_dropShadow"/>
<feBlend mode="normal" in="SourceGraphic" in2="effect1_dropShadow" result="shape"/>
</filter>
</defs>
</svg>
