<svg width="33" height="33" viewBox="0 0 33 33" fill="none" xmlns="http://www.w3.org/2000/svg">
<path d="M23.5849 20.7547H22.0943L21.566 20.2453C23.4151 18.0943 24.5283 15.3019 24.5283 12.2642C24.5283 5.49057 19.0377 0 12.2642 0C5.49057 0 0 5.49057 0 12.2642C0 19.0377 5.49057 24.5283 12.2642 24.5283C15.3019 24.5283 18.0943 23.4151 20.2453 21.566L20.7547 22.0943V23.5849L30.1887 33L33 30.1887L23.5849 20.7547ZM12.2642 20.7547C7.56604 20.7547 3.77358 16.9623 3.77358 12.2642C3.77358 7.56604 7.56604 3.77358 12.2642 3.77358C16.9623 3.77358 20.7547 7.56604 20.7547 12.2642C20.7547 16.9623 16.9623 20.7547 12.2642 20.7547Z" fill="#D7DDD0"/>
</svg>
