<svg width="38" height="31" viewBox="0 0 38 31" fill="none" xmlns="http://www.w3.org/2000/svg">
<path opacity="0.6" d="M19.0826 0C8.74053 0 0.365723 6.82869 0.365723 15.2426C0.365723 23.6565 8.74053 30.4852 19.0826 30.4852C29.4434 30.4852 37.8369 23.6565 37.8369 15.2426C37.8369 6.82869 29.4434 0 19.0826 0ZM19.1013 27.4367C10.8202 27.4367 4.11284 21.9799 4.11284 15.2426C4.11284 8.50538 10.8202 3.04852 19.1013 3.04852C27.3824 3.04852 34.0898 8.50538 34.0898 15.2426C34.0898 21.9799 27.3824 27.4367 19.1013 27.4367ZM25.6588 13.7184C27.2138 13.7184 28.4691 12.6971 28.4691 11.432C28.4691 10.1668 27.2138 9.14557 25.6588 9.14557C24.1037 9.14557 22.8484 10.1668 22.8484 11.432C22.8484 12.6971 24.1037 13.7184 25.6588 13.7184ZM12.5439 13.7184C14.0989 13.7184 15.3542 12.6971 15.3542 11.432C15.3542 10.1668 14.0989 9.14557 12.5439 9.14557C10.9888 9.14557 9.73352 10.1668 9.73352 11.432C9.73352 12.6971 10.9888 13.7184 12.5439 13.7184ZM19.1013 23.6261C23.4667 23.6261 27.1763 21.4006 28.6752 18.2911H9.52742C11.0263 21.4006 14.7359 23.6261 19.1013 23.6261Z" fill="#052634"/>
</svg>
