<svg width="30" height="32" viewBox="0 0 30 32" fill="none" xmlns="http://www.w3.org/2000/svg">
<path d="M20.9084 20.7936C17.2311 24.5372 11.2677 24.7098 7.38053 21.2655L6.64917 20.5472C3.13928 16.7255 3.20172 10.7567 6.87894 7.01304C10.6775 3.14585 16.9134 3.09005 20.7806 6.88864C24.6478 10.6872 24.707 16.9264 20.9084 20.7936ZM8.5988 8.7024C8.50367 8.79924 8.41189 8.89937 8.3201 8.9995L12.2507 12.8604L15.0434 12.7361L14.9691 15.5306L18.8998 19.3915C18.9982 19.2979 19.0967 19.2044 19.1918 19.1075C22.0621 16.1854 22.0166 11.4754 19.0979 8.60844C16.1758 5.73818 11.4658 5.78364 8.5988 8.7024ZM18.8406 19.4384L14.9166 15.584L12.0878 15.7384L12.2507 12.8604L12.1983 12.9139L8.27429 9.0595C5.7451 11.9951 5.88754 16.446 8.69276 19.2015C11.498 21.9569 15.9508 22.0263 18.8406 19.4384Z" fill="#3C5A76"/>
<rect x="18.9028" y="21.8596" width="3.21032" height="12.7211" transform="rotate(-43.5955 18.9028 21.8596)" fill="#3C5A76"/>
</svg>
